<svg width="24" height="24" viewBox="0 0 24 24" fill="none" xmlns="http://www.w3.org/2000/svg">
<path d="M17.715 15.15L18.665 15.466C18.7292 15.2738 18.7336 15.0667 18.6774 14.872C18.6213 14.6773 18.5074 14.5042 18.3507 14.3757C18.194 14.2473 18.002 14.1694 17.8001 14.1525C17.5982 14.1356 17.3959 14.1804 17.22 14.281L17.715 15.15ZM9 6.03498L9.846 6.56898C9.95524 6.39622 10.0089 6.19413 9.9998 5.98993C9.99068 5.78574 9.9192 5.58924 9.795 5.4269C9.67079 5.26456 9.49983 5.14418 9.30512 5.08198C9.11041 5.01977 8.90132 5.01873 8.706 5.07898L9 6.03498ZM17.221 14.281C16.3924 14.7534 15.4548 15.0009 14.501 14.999V16.999C15.8019 17.0009 17.0808 16.6631 18.211 16.019L17.221 14.281ZM14.501 14.999C13.7787 14.9991 13.0635 14.857 12.3962 14.5807C11.7288 14.3044 11.1224 13.8994 10.6116 13.3888C10.1008 12.8782 9.69557 12.2719 9.41905 11.6047C9.14252 10.9374 9.00013 10.2223 9 9.49998H7C7 11.4891 7.79018 13.3968 9.1967 14.8033C10.6032 16.2098 12.5109 17 14.5 17V15L14.501 14.999ZM9 9.49998C9 8.42098 9.31 7.41799 9.845 6.56999L8.153 5.49998C7.39741 6.69713 6.99755 8.08433 7 9.49998H9ZM5 12.868C5 10.089 6.815 7.74998 9.292 6.98998L8.706 5.07898C5.397 6.09298 3 9.20098 3 12.867H5V12.868ZM11.042 19.004C7.718 19.003 5 16.268 5 12.867H3C3 17.347 6.588 21.003 11.042 21.003V19.004ZM16.767 14.834C15.957 17.267 13.693 19.004 11.042 19.004V21.003C14.594 21.003 17.595 18.677 18.664 15.467L16.767 14.835V14.834Z" fill="#0EA5E9"/>
<path fill-rule="evenodd" clip-rule="evenodd" d="M17 3C17.2652 3 17.5196 3.10536 17.7071 3.29289C17.8946 3.48043 18 3.73478 18 4C18 4.53043 18.2107 5.03914 18.5858 5.41421C18.9609 5.78929 19.4696 6 20 6C20.2652 6 20.5196 6.10536 20.7071 6.29289C20.8946 6.48043 21 6.73478 21 7C21 7.26522 20.8946 7.51957 20.7071 7.70711C20.5196 7.89464 20.2652 8 20 8C19.4696 8 18.9609 8.21071 18.5858 8.58579C18.2107 8.96086 18 9.46957 18 10C18 10.2652 17.8946 10.5196 17.7071 10.7071C17.5196 10.8946 17.2652 11 17 11C16.7348 11 16.4804 10.8946 16.2929 10.7071C16.1054 10.5196 16 10.2652 16 10C16 9.46957 15.7893 8.96086 15.4142 8.58579C15.0391 8.21071 14.5304 8 14 8C13.7348 8 13.4804 7.89464 13.2929 7.70711C13.1054 7.51957 13 7.26522 13 7C13 6.73478 13.1054 6.48043 13.2929 6.29289C13.4804 6.10536 13.7348 6 14 6C14.5304 6 15.0391 5.78929 15.4142 5.41421C15.7893 5.03914 16 4.53043 16 4C16 3.73478 16.1054 3.48043 16.2929 3.29289C16.4804 3.10536 16.7348 3 17 3Z" fill="#0EA5E9"/>
</svg>
