<svg width="24" height="24" viewBox="0 0 24 24" fill="none" xmlns="http://www.w3.org/2000/svg">
<path d="M14.5 12C14.5 12.663 14.2366 13.2989 13.7678 13.7678C13.2989 14.2366 12.663 14.5 12 14.5C11.337 14.5 10.7011 14.2366 10.2322 13.7678C9.76339 13.2989 9.5 12.663 9.5 12C9.5 11.337 9.76339 10.7011 10.2322 10.2322C10.7011 9.76339 11.337 9.5 12 9.5C12.663 9.5 13.2989 9.76339 13.7678 10.2322C14.2366 10.7011 14.5 11.337 14.5 12Z" stroke="#0EA5E9"/>
<mask id="path-2-inside-1_1005_422" fill="white">
<path d="M12.0001 4V5ZM17.6601 6.344L16.8321 7.172ZM20.0051 12.004H19.0051ZM17.6601 17.664L16.8321 16.836ZM12.0001 20.01V19ZM6.34012 17.664L7.17512 16.828ZM3.99512 12.004H5.00512ZM6.00012 6L6.83512 6.836Z"/>
</mask>
<path d="M11.0001 4V5H13.0001V4H11.0001ZM16.953 5.63689L16.125 6.46489L17.5392 7.87911L18.3672 7.05111L16.953 5.63689ZM20.0051 11.004H19.0051V13.004H20.0051V11.004ZM18.3672 16.9569L17.5392 16.1289L16.125 17.5431L16.953 18.3711L18.3672 16.9569ZM13.0001 20.01V19H11.0001V20.01H13.0001ZM7.04765 18.3707L7.88265 17.5347L6.46759 16.1213L5.63259 16.9573L7.04765 18.3707ZM3.99512 13.004H5.00512V11.004H3.99512V13.004ZM5.29259 6.70668L6.12759 7.54268L7.54265 6.12932L6.70765 5.29332L5.29259 6.70668Z" fill="#0EA5E9" mask="url(#path-2-inside-1_1005_422)"/>
</svg>
